<?xml version="1.0" encoding="UTF-8" standalone="no"?>
<svg
   xmlns:dc="http://purl.org/dc/elements/1.1/"
   xmlns:cc="http://creativecommons.org/ns#"
   xmlns:rdf="http://www.w3.org/1999/02/22-rdf-syntax-ns#"
   xmlns:svg="http://www.w3.org/2000/svg"
   xmlns="http://www.w3.org/2000/svg"
   id="svg4136"
   width="16"
   viewBox="0 0 16 16"
   version="1.1"
   height="16"
   class="octicon octicon-bell"
   aria-hidden="true">
  <metadata
     id="metadata4144">
    <rdf:RDF>
      <cc:Work
         rdf:about="">
        <dc:format>image/svg+xml</dc:format>
        <dc:type
           rdf:resource="http://purl.org/dc/dcmitype/StillImage" />
        <dc:title></dc:title>
      </cc:Work>
    </rdf:RDF>
  </metadata>
  <defs
     id="defs4142" />
  <path
     id="path4138"
     d="m 15.016963,12 0,1 -14.0000004,0 0,-1 0.73,-0.58 c 0.77,-0.77 0.81,-2.55 1.19,-4.42 0.77,-3.77 4.08,-5 4.08,-5 0,-0.55 0.45,-1 1,-1 0.55,0 1,0.45 1,1 0,0 3.3900004,1.23 4.1600004,5 0.38,1.88 0.42,3.66 1.19,4.42 l 0.66,0.58 -0.01,0 z m -7.0000004,4 c 1.11,0 2.0000004,-0.89 2.0000004,-2 l -4.0000004,0 c 0,1.11 0.89,2 2,2 z" />
  <g
     id="g4201">
    <g
       id="g4196">
      <g
         id="g4192">
        <g
           id="g4189" />
      </g>
    </g>
  </g>
  <path
     id="path4174"
     d="m 12,1 0,6 0,-6 z"
     style="fill:none;fill-rule:evenodd;stroke:#0000ff;stroke-width:1px;stroke-linecap:round;stroke-linejoin:round;stroke-opacity:1;fill-opacity:1" />
  <g
     style="fill:none;fill-opacity:1;stroke:#0000ff;stroke-opacity:1"
     id="g4220">
    <g
       style="fill:none;fill-opacity:1;stroke:#0000ff;stroke-opacity:1"
       id="g4213">
      <g
         style="fill:none;fill-opacity:1;stroke:#0000ff;stroke-opacity:1"
         id="g4207">
        <g
           style="fill:none;fill-opacity:1;stroke:#0000ff;stroke-opacity:1"
           id="g4179">
          <g
             style="fill:none;fill-opacity:1;stroke:#0000ff;stroke-opacity:1"
             id="g4185">
            <g
               style="fill:none;fill-opacity:1;stroke:#0000ff;stroke-opacity:1"
               id="g4182">
              <path
                 id="path4176"
                 d="M 15,4 9,4 Z"
                 style="fill:none;fill-rule:evenodd;stroke:#0000ff;stroke-width:1px;stroke-linecap:round;stroke-linejoin:round;stroke-opacity:1;fill-opacity:1" />
            </g>
          </g>
        </g>
      </g>
    </g>
  </g>
</svg>
